<svg width="472" height="128" viewBox="0 0 472 128" fill="none" xmlns="http://www.w3.org/2000/svg">
<path d="M48.9243 22L23.8508 37.75L48.9243 53.5L74.0022 37.75L99.0757 53.5L124.149 37.75L99.0757 22L74.0022 37.75L48.9243 22Z" fill="#0061FE"/>
<path d="M48.9243 85.0003L23.8508 69.2503L48.9243 53.5L74.0022 69.2503L48.9243 85.0003Z" fill="#0061FE"/>
<path d="M74.0022 69.2503L99.0757 53.5L124.149 69.2503L99.0757 85.0003L74.0022 69.2503Z" fill="#0061FE"/>
<path d="M74.0022 106L48.9243 90.25L74.0022 74.5L99.0757 90.25L74.0022 106Z" fill="#0061FE"/>
<path d="M141.95 37.5274H161.903C174.663 37.5274 185.084 44.9318 185.084 61.7293V65.3189C185.084 82.1789 175.251 89.8084 162.204 89.8084H141.95V37.5274ZM153.096 46.9955V80.2152H161.678C168.859 80.2152 173.775 75.4499 173.775 64.9687V62.2546C173.775 51.7734 168.721 47.0081 161.303 47.0081H153.096V46.9955ZM191.014 47.5084H199.883L201.272 57.3392C202.961 50.5977 207.289 47.1456 215.133 47.1456H217.848V58.3648H213.307C204.212 58.3648 202.01 61.5166 202.01 70.4594V89.8209H191.014V47.5084ZM220.2 69.5714V68.3957C220.2 54.1748 229.294 46.5453 241.617 46.5453C254.227 46.5453 262.959 54.3124 262.959 68.3957V69.5714C262.959 83.5046 254.377 90.909 241.617 90.909C227.981 90.909 220.2 83.5046 220.2 69.5714ZM251.812 69.4213V68.3957C251.812 60.4785 247.847 55.8633 241.617 55.8633C235.462 55.8633 231.346 60.1909 231.346 68.3957V69.4213C231.346 77.0508 235.237 81.3033 241.542 81.3033C247.859 81.3033 251.812 77.1259 251.812 69.4213ZM268.751 47.5084H277.995L279.096 55.5756C281.373 50.1474 286.064 46.5578 293.032 46.5578C303.816 46.5578 310.859 54.3249 310.859 68.5583V69.734C310.859 83.6672 303.015 90.9215 293.032 90.9215C286.29 90.9215 281.811 87.9198 279.534 83.0044V104.342H268.751V47.5084ZM299.7 69.4964V68.5458C299.7 60.1158 295.372 55.9383 289.58 55.9383C283.425 55.9383 279.309 60.6286 279.309 68.4708V69.2837C279.309 76.7632 283.275 81.4534 289.355 81.4534C295.672 81.4534 299.7 77.276 299.7 69.4964ZM327.059 82.1163L326.184 89.8209H316.651V33.35H327.435V55.0503C329.787 49.5471 334.478 46.5453 341.146 46.5453C351.191 46.6203 358.672 53.5869 358.672 67.6578V68.9085C358.672 82.9918 351.629 90.909 340.845 90.909C333.877 90.909 329.336 87.5445 327.059 82.1163ZM347.601 68.9085V67.8829C347.601 60.1158 343.347 55.8633 337.48 55.8633C331.388 55.8633 327.21 60.7787 327.21 68.033V68.9085C327.21 76.8257 331.238 81.3784 337.33 81.3784C343.71 81.3784 347.601 77.276 347.601 68.9085ZM363.588 69.5714V68.3957C363.588 54.1748 372.608 46.5453 384.93 46.5453C397.54 46.5453 406.347 54.3124 406.347 68.3957V69.5714C406.347 83.5046 397.691 90.909 384.93 90.909C371.282 90.909 363.588 83.5046 363.588 69.5714ZM395.189 69.4213V68.3957C395.189 60.4785 391.223 55.8633 384.993 55.8633C378.838 55.8633 374.722 60.1909 374.722 68.3957V69.4213C374.722 77.0508 378.613 81.3033 384.918 81.3033C391.31 81.3033 395.189 77.1259 395.189 69.4213ZM420.721 67.8829L405.91 47.4958H418.595L427.176 60.1783L435.833 47.4958H448.443L433.406 67.8079L449.244 89.8084H436.772L427.014 75.8001L417.556 89.8084H404.646L420.721 67.8829Z" fill="#1E1919"/>
</svg>
