<svg width="472" height="128" viewBox="0 0 472 128" fill="none" xmlns="http://www.w3.org/2000/svg">
<path d="M49.1606 22L24.087 37.75L49.1606 53.5L74.2384 37.75L99.312 53.5L124.386 37.75L99.312 22L74.2384 37.75L49.1606 22Z" fill="#F7F5F2"/>
<path d="M49.1606 85.0003L24.087 69.2503L49.1606 53.5L74.2384 69.2503L49.1606 85.0003Z" fill="#F7F5F2"/>
<path d="M74.2384 69.2503L99.312 53.5L124.386 69.2503L99.312 85.0003L74.2384 69.2503Z" fill="#F7F5F2"/>
<path d="M74.2384 106L49.1606 90.25L74.2384 74.5L99.312 90.25L74.2384 106Z" fill="#F7F5F2"/>
<path d="M142.186 37.5274H162.14C174.9 37.5274 185.321 44.9318 185.321 61.7293V65.3189C185.321 82.1789 175.488 89.8084 162.44 89.8084H142.186V37.5274ZM153.333 46.9955V80.2152H161.914C169.095 80.2152 174.012 75.4499 174.012 64.9687V62.2546C174.012 51.7734 168.958 47.0081 161.539 47.0081H153.333V46.9955ZM191.25 47.5084H200.12L201.508 57.3392C203.197 50.5977 207.526 47.1456 215.369 47.1456H218.084V58.3648H213.543C204.448 58.3648 202.246 61.5166 202.246 70.4594V89.8209H191.25V47.5084ZM220.436 69.5714V68.3957C220.436 54.1748 229.531 46.5453 241.853 46.5453C254.463 46.5453 263.195 54.3124 263.195 68.3957V69.5714C263.195 83.5046 254.613 90.909 241.853 90.909C228.217 90.909 220.436 83.5046 220.436 69.5714ZM252.048 69.4213V68.3957C252.048 60.4785 248.083 55.8633 241.853 55.8633C235.698 55.8633 231.582 60.1909 231.582 68.3957V69.4213C231.582 77.0508 235.473 81.3033 241.778 81.3033C248.095 81.3033 252.048 77.1259 252.048 69.4213ZM268.987 47.5084H278.232L279.333 55.5756C281.609 50.1474 286.301 46.5578 293.269 46.5578C304.052 46.5578 311.095 54.3249 311.095 68.5583V69.734C311.095 83.6672 303.252 90.9215 293.269 90.9215C286.526 90.9215 282.047 87.9198 279.77 83.0044V104.342H268.987V47.5084ZM299.936 69.4964V68.5458C299.936 60.1158 295.608 55.9383 289.816 55.9383C283.661 55.9383 279.545 60.6286 279.545 68.4708V69.2837C279.545 76.7632 283.511 81.4534 289.591 81.4534C295.908 81.4534 299.936 77.276 299.936 69.4964ZM327.296 82.1163L326.42 89.8209H316.887V33.35H327.671V55.0503C330.023 49.5471 334.714 46.5453 341.382 46.5453C351.427 46.6203 358.908 53.5869 358.908 67.6578V68.9085C358.908 82.9918 351.865 90.909 341.082 90.909C334.114 90.909 329.572 87.5445 327.296 82.1163ZM347.837 68.9085V67.8829C347.837 60.1158 343.584 55.8633 337.716 55.8633C331.624 55.8633 327.446 60.7787 327.446 68.033V68.9085C327.446 76.8257 331.474 81.3784 337.566 81.3784C343.946 81.3784 347.837 77.276 347.837 68.9085ZM363.825 69.5714V68.3957C363.825 54.1748 372.844 46.5453 385.167 46.5453C397.777 46.5453 406.584 54.3124 406.584 68.3957V69.5714C406.584 83.5046 397.927 90.909 385.167 90.909C371.518 90.909 363.825 83.5046 363.825 69.5714ZM395.425 69.4213V68.3957C395.425 60.4785 391.459 55.8633 385.229 55.8633C379.074 55.8633 374.959 60.1909 374.959 68.3957V69.4213C374.959 77.0508 378.849 81.3033 385.154 81.3033C391.547 81.3033 395.425 77.1259 395.425 69.4213ZM420.958 67.8829L406.146 47.4958H418.831L427.413 60.1783L436.07 47.4958H448.68L433.643 67.8079L449.48 89.8084H437.008L427.25 75.8001L417.793 89.8084H404.882L420.958 67.8829Z" fill="#F7F5F2"/>
</svg>
