<svg width="147" height="18" viewBox="0 0 147 18" fill="none" xmlns="http://www.w3.org/2000/svg">
<path d="M33.4556 6.55762C35.9425 6.55762 37.5024 7.60092 37.5024 9.4541V10.6953C37.5024 12.6651 36.1594 13.5263 33.6704 13.5263H24.7524V17.8632H21.3345V6.55762H33.4556ZM146.805 0.00195301V0.018554C141.398 0.458401 120.15 3.08718 105.414 17.8632H99.9458L100.557 17.2558C103.641 14.2838 117.282 1.68754 146.803 0L146.805 0.00195301ZM56.2397 17.8613H52.1655L50.3599 15.3857H39.8169L41.6274 13.457H48.9526L45.4292 8.62988L47.5093 6.07715L56.2397 17.8613ZM72.1841 6.55566C74.0086 6.55568 75.3021 7.18568 75.6343 8.52734H62.8081V15.7373H75.6343C75.2694 17.2304 74.4885 17.8612 72.2827 17.8613H62.5786C60.9037 17.8613 59.3268 17.1818 59.3267 15.3779V9.03906C59.3267 7.23503 60.9037 6.55571 62.5786 6.55566H72.1841ZM90.7222 12.291H83.8247V15.7373H95.6489V17.8613H80.3481V10.3545H90.7222V12.291ZM120.998 17.8613H115.584L110.775 14.3652H110.777C111.663 13.6738 112.602 12.9802 113.51 12.3584L120.998 17.8613ZM12.9351 6.55566C14.8252 6.55568 15.9037 7.48423 16.2358 8.52734H3.59424V10.9619H13.3979V10.9599C15.3722 11.0724 16.5677 11.9167 16.5679 13.5058V15.3105C16.5677 17.0653 15.5242 17.8584 13.4331 17.8584H3.43018C1.52352 17.8584 0.428522 17.1467 0.112793 15.7353H13.4849V13.1504H3.54541C1.70432 13.1606 0.459473 12.3152 0.459473 10.8261V9.03906C0.459473 7.33315 1.66924 6.55566 3.77686 6.55566H12.9351ZM24.7524 11.457H33.0435C34.3863 11.457 34.5356 11.0082 34.5356 10.1982V9.75493C34.5356 8.95921 34.3371 8.52931 32.8774 8.5293H24.7729L24.7524 11.457ZM109.604 9.33594C108.627 9.91243 107.562 10.5772 106.646 11.1904L100.298 6.55566H105.705L109.604 9.33594ZM109.607 9.33789L109.604 9.33594L109.607 9.33496V9.33789ZM95.811 8.52734H80.3481V6.55566H95.811V8.52734Z" fill="black"/>
</svg>
