<?xml version="1.0" encoding="utf-8"?>
<!-- Generator: Adobe Illustrator 18.0.0, SVG Export Plug-In . SVG Version: 6.00 Build 0)  -->
<!DOCTYPE svg PUBLIC "-//W3C//DTD SVG 1.1//EN" "http://www.w3.org/Graphics/SVG/1.1/DTD/svg11.dtd">
<svg version="1.1" id="Layer_1" xmlns="http://www.w3.org/2000/svg" xmlns:xlink="http://www.w3.org/1999/xlink" x="0px" y="0px"
	 viewBox="0 0 368 328" enable-background="new 0 0 368 328" xml:space="preserve">
<g>
	<path opacity="0.1" d="M212.2,253.4c-0.5,0-1-0.1-1.5-0.2l-132-41c-1.5-0.5-2.7-1.6-3.2-3.1c-0.5-1.5-0.3-3.2,0.6-4.5l33-48
		c0.8-1.2,2.1-2,3.5-2.1c1.4-0.2,2.9,0.3,3.9,1.2l99,89c1.7,1.6,2.2,4.1,1,6.2C215.6,252.5,213.9,253.4,212.2,253.4z M88.1,204.7
		l103.7,32.2L114.1,167L88.1,204.7z"/>
	<g>
		
			<path fill="#FFFFFF" stroke="#000000" stroke-width="5" stroke-linecap="round" stroke-linejoin="round" stroke-miterlimit="10" d="
			M184,134.5c0,0-30,0-40-10l10,100c0,0,10.3,10,30,10s30-10,30-10l10-100C214,134.5,184,134.5,184,134.5z"/>
		
			<path fill="#FFFFFF" stroke="#000000" stroke-width="5" stroke-linecap="round" stroke-linejoin="round" stroke-miterlimit="10" d="
			M224.7,107.5c-13.7-13.7-40.7-13-40.7-13v0c0,0-27-0.7-40.7,13l-3.3,27c0,0,6.1,10,44,10v0c37.9,0,44-10,44-10L224.7,107.5z"/>
		
			<path fill="#FFFFFF" stroke="#000000" stroke-width="5" stroke-linecap="round" stroke-linejoin="round" stroke-miterlimit="10" d="
			M160.4,115.8c0,0,8.4,2.4,23.6,2.4c24.3,0,35-7.7,35-7.7"/>
		
			<ellipse fill="#FFFFFF" stroke="#000000" stroke-width="5" stroke-linecap="round" stroke-linejoin="round" stroke-miterlimit="10" cx="184" cy="100" rx="21.5" ry="6.5"/>
		<path stroke="#000000" stroke-width="5" stroke-linecap="round" stroke-linejoin="round" stroke-miterlimit="10" d="M183.8,170
			c-22.7,0-35.9-6.5-35.9-6.5l2.1,20c3.9,5.6,25.2,8,33.9,8c8.7,0,30-2.4,33.9-8l2.1-20C219.8,163.5,206.5,170,183.8,170z"/>
		
			<path fill="#FFFFFF" stroke="#000000" stroke-width="5" stroke-linecap="round" stroke-linejoin="round" stroke-miterlimit="10" d="
			M153.1,112.8c0,0-1.2-0.5-2.5-1.2"/>
	</g>
	<path opacity="0.1" d="M278.2,76.4c-12.7,0-23-10.3-23-23s10.3-23,23-23s23,10.3,23,23S290.8,76.4,278.2,76.4z M278.2,40.4
		c-7.2,0-13,5.8-13,13s5.8,13,13,13s13-5.8,13-13S285.3,40.4,278.2,40.4z"/>
	<path opacity="0.1" d="M86.2,327.9c-17.6,0-32-14.4-32-32s14.4-32,32-32s32,14.4,32,32S103.8,327.9,86.2,327.9z M86.2,273.9
		c-12.1,0-22,9.9-22,22s9.9,22,22,22s22-9.9,22-22S98.3,273.9,86.2,273.9z"/>
	<path opacity="0.1" d="M85.2,105.2c-1.3,0-2.6-0.5-3.5-1.5L59,81c-0.9-0.9-1.5-2.2-1.5-3.5s0.5-2.6,1.5-3.5l22.7-22.7
		c2-2,5.1-2,7.1,0l22.7,22.7c2,2,2,5.1,0,7.1l-22.7,22.7C87.8,104.7,86.5,105.2,85.2,105.2z M69.6,77.5l15.6,15.6l15.6-15.6
		L85.2,61.9L69.6,77.5z"/>
	<path opacity="0.1" d="M340.2,274.5c-1.3,0-2.6-0.5-3.5-1.5l-22.7-22.7c-2-2-2-5.1,0-7.1l22.7-22.7c2-2,5.1-2,7.1,0l22.7,22.7
		c2,2,2,5.1,0,7.1l-22.7,22.7C342.7,274.1,341.4,274.5,340.2,274.5z M324.6,246.9l15.6,15.6l15.6-15.6l-15.6-15.6L324.6,246.9z"/>
	<path opacity="0.1" d="M288.2,183.4c-0.9,0-1.7-0.2-2.5-0.7c-1.5-0.9-2.5-2.5-2.5-4.3v-48.3c0-1.8,1-3.4,2.5-4.3
		c1.5-0.9,3.5-0.9,5,0l42,24.3c1.5,0.9,2.5,2.6,2.5,4.3c0,1.8-1,3.4-2.5,4.3l-42,24C289.9,183.2,289,183.4,288.2,183.4z
		 M293.2,138.8v31l27-15.4L293.2,138.8z"/>
	<path opacity="0.1" d="M5.2,183.4c-0.9,0-1.7-0.2-2.5-0.7c-1.5-0.9-2.5-2.5-2.5-4.3v-48.3c0-1.8,1-3.4,2.5-4.3c1.5-0.9,3.5-0.9,5,0
		l42,24.3c1.5,0.9,2.5,2.6,2.5,4.3c0,1.8-1,3.4-2.5,4.3l-42,24C6.9,183.2,6,183.4,5.2,183.4z M10.2,138.8v31l27-15.4L10.2,138.8z"/>
	<path opacity="0.1" d="M146.9,75.8c-2.6,0-4.8-2-5-4.6c-0.2-2.8,1.8-5.2,4.6-5.4l24.4-2.1l-0.6-24.5c-0.1-2.6,1.9-4.9,4.6-5.1
		l24.4-2.1l-0.6-24.5c-0.1-2.6,1.9-4.9,4.6-5.1l29.1-2.5c2.8-0.2,5.2,1.8,5.4,4.6s-1.8,5.2-4.6,5.4l-24.4,2.1l0.6,24.5
		c0.1,2.6-1.9,4.9-4.6,5.1l-24.4,2.1l0.6,24.5c0.1,2.6-1.9,4.9-4.6,5.1l-29.1,2.4C147.2,75.8,147,75.8,146.9,75.8z"/>
	<path opacity="0.1" d="M235,319c-18.5,0-36.5-10.1-45.5-27.7c-1.3-2.5-0.3-5.5,2.2-6.7c2.5-1.3,5.5-0.3,6.7,2.2
		c10.4,20.1,35.2,28.1,55.3,17.7c20.1-10.4,28.1-35.2,17.7-55.3c-1.3-2.5-0.3-5.5,2.2-6.7c2.5-1.3,5.5-0.3,6.7,2.2
		c12.9,25,3,55.9-22,68.8C250.8,317.2,242.8,319,235,319z"/>
</g>
</svg>
