<?xml version="1.0" encoding="utf-8"?>
<!-- Generator: Adobe Illustrator 18.0.0, SVG Export Plug-In . SVG Version: 6.00 Build 0)  -->
<!DOCTYPE svg PUBLIC "-//W3C//DTD SVG 1.1//EN" "http://www.w3.org/Graphics/SVG/1.1/DTD/svg11.dtd">
<svg version="1.1" id="Layer_1" xmlns="http://www.w3.org/2000/svg" xmlns:xlink="http://www.w3.org/1999/xlink" x="0px" y="0px"
	 viewBox="0 0 368 328" enable-background="new 0 0 368 328" xml:space="preserve">
<g>
	
		<path fill="#FFFFFF" stroke="#000000" stroke-width="5" stroke-linecap="round" stroke-linejoin="round" stroke-miterlimit="10" d="
		M184,134.5c0,0-30,0-40-10l10,100c0,0,10.3,10,30,10s30-10,30-10l10-100C214,134.5,184,134.5,184,134.5z"/>
	
		<path fill="#FFFFFF" stroke="#000000" stroke-width="5" stroke-linecap="round" stroke-linejoin="round" stroke-miterlimit="10" d="
		M224.7,107.5c-13.7-13.7-40.7-13-40.7-13v0c0,0-27-0.7-40.7,13l-3.3,27c0,0,6.1,10,44,10v0c37.9,0,44-10,44-10L224.7,107.5z"/>
	
		<path fill="#FFFFFF" stroke="#000000" stroke-width="5" stroke-linecap="round" stroke-linejoin="round" stroke-miterlimit="10" d="
		M160.4,115.8c0,0,8.4,2.4,23.6,2.4c24.3,0,35-7.7,35-7.7"/>
	
		<ellipse fill="#FFFFFF" stroke="#000000" stroke-width="5" stroke-linecap="round" stroke-linejoin="round" stroke-miterlimit="10" cx="184" cy="100" rx="21.5" ry="6.5"/>
	<path stroke="#000000" stroke-width="5" stroke-linecap="round" stroke-linejoin="round" stroke-miterlimit="10" d="M183.8,170
		c-22.7,0-35.9-6.5-35.9-6.5l2.1,20c3.9,5.6,25.2,8,33.9,8c8.7,0,30-2.4,33.9-8l2.1-20C219.8,163.5,206.5,170,183.8,170z"/>
	
		<path fill="#FFFFFF" stroke="#000000" stroke-width="5" stroke-linecap="round" stroke-linejoin="round" stroke-miterlimit="10" d="
		M153.1,112.8c0,0-1.2-0.5-2.5-1.2"/>
</g>
</svg>
